<?xml version="1.0" encoding="utf-8"?>
<!-- Generator: Adobe Illustrator 16.0.0, SVG Export Plug-In . SVG Version: 6.00 Build 0)  -->
<!DOCTYPE svg PUBLIC "-//W3C//DTD SVG 1.1//EN" "http://www.w3.org/Graphics/SVG/1.1/DTD/svg11.dtd">
<svg version="1.1" id="Capa_1" xmlns="http://www.w3.org/2000/svg" xmlns:xlink="http://www.w3.org/1999/xlink" x="0px" y="0px"
	 width="1920px" height="1080px" viewBox="0 0 1920 1080" enable-background="new 0 0 1920 1080" xml:space="preserve">
<rect fill="#F9E959" width="1920" height="1080"/>
<g>
	<path fill="#2C2C2C" d="M803.816,468.512v116.054h-46.371V476.62c0-23.462-9.591-35.385-28.493-35.385
		c-14.744,0-31.959,9.375-31.959,35.71v107.62h-46.307V471.932c0-18.641-11.58-30.697-29.458-30.697
		c-18.164,0-31.313,14.627-31.313,34.733v108.597h-46.36V400.499h46.36v7.66c10.626-7.613,23.811-11.719,38.461-11.719
		c21.473,0,39.828,8.107,52.269,22.63c12.493-15.011,30.133-22.63,52.693-22.63C774.846,396.439,803.816,426.095,803.816,468.512"/>
	<rect x="835.17" y="400.493" fill="#2C2C2C" width="46.377" height="184.061"/>
	<path fill="#2C2C2C" d="M1173.164,468.512v116.054h-46.307V476.62c0-23.462-9.574-35.385-28.534-35.385
		c-14.703,0-31.919,9.375-31.919,35.71v107.62h-46.354V471.932c0-18.641-11.551-30.697-29.465-30.697
		c-18.11,0-31.313,14.627-31.313,34.733v108.597h-46.342V400.499h46.342v7.66c10.643-7.613,23.823-11.719,38.526-11.719
		c21.473,0,39.828,8.107,52.274,22.63c12.423-15.011,30.069-22.63,52.647-22.63C1144.2,396.439,1173.164,426.095,1173.164,468.512"
		/>
	<path fill="#2C2C2C" d="M1330.116,400.505v11.754c-10.829-8.194-26.648-15.831-48.181-15.831c-52.064,0-89.846,40.55-89.846,96.407
		c0,55.532,38.537,95.837,91.73,95.837c17.785,0,33.942-5.397,47.238-15.472v11.354h45.389V400.505H1330.116z M1285.379,544.784
		c-28.149,0-46.33-20.368-46.33-51.95c0-31.214,18.355-52.216,45.668-52.216c28.149,0,46.342,20.525,46.342,52.216
		C1331.059,517.878,1316.773,544.784,1285.379,544.784"/>
	<text transform="matrix(1 0 0 1 702.1362 668.5996)"><tspan x="0" y="0" fill="#2C2C2C" font-family="'FreightSansBoldSC'" font-size="52.9075">id</tspan><tspan x="45.5" y="0" fill="#2C2C2C" font-family="'FreightSansBoldSC'" font-size="52.9075">e</tspan><tspan x="71.266" y="0" fill="#2C2C2C" font-family="'FreightSansBoldSC'" font-size="52.9075">nt</tspan><tspan x="130.309" y="0" fill="#2C2C2C" font-family="'FreightSansBoldSC'" font-size="52.9075">i</tspan><tspan x="145.018" y="0" fill="#2C2C2C" font-family="'FreightSansBoldSC'" font-size="52.9075">d</tspan><tspan x="175.598" y="0" fill="#2C2C2C" font-family="'FreightSansBoldSC'" font-size="52.9075">ad </tspan><tspan x="246.44" y="0" fill="#2C2C2C" font-family="'FreightSansBoldSC'" font-size="52.9075">c</tspan><tspan x="272.735" y="0" fill="#2C2C2C" font-family="'FreightSansBoldSC'" font-size="52.9075">orpo</tspan><tspan x="393.679" y="0" fill="#2C2C2C" font-family="'FreightSansBoldSC'" font-size="52.9075">r</tspan><tspan x="422.143" y="0" fill="#2C2C2C" font-family="'FreightSansBoldSC'" font-size="52.9075" letter-spacing="-1">a</tspan><tspan x="450.184" y="0" fill="#2C2C2C" font-family="'FreightSansBoldSC'" font-size="52.9075">ti</tspan><tspan x="492.193" y="0" fill="#2C2C2C" font-family="'FreightSansBoldSC'" font-size="52.9075" letter-spacing="-1">v</tspan><tspan x="519.386" y="0" fill="#2C2C2C" font-family="'FreightSansBoldSC'" font-size="52.9075">a</tspan></text>
</g>
</svg>
