<?xml version="1.0" encoding="utf-8"?>
<!-- Generator: Adobe Illustrator 16.0.0, SVG Export Plug-In . SVG Version: 6.00 Build 0)  -->
<!DOCTYPE svg PUBLIC "-//W3C//DTD SVG 1.1//EN" "http://www.w3.org/Graphics/SVG/1.1/DTD/svg11.dtd">
<svg version="1.1" id="Capa_1" xmlns="http://www.w3.org/2000/svg" xmlns:xlink="http://www.w3.org/1999/xlink" x="0px" y="0px"
	 width="1200px" height="1200px" viewBox="0 0 1200 1200" enable-background="new 0 0 1200 1200" xml:space="preserve">
<rect fill="#2C2C2C" width="1200" height="1200"/>
<g>
	<path fill="#F9E959" d="M475.322,542.933v92.642h-37.018v-86.17c0-18.729-7.656-28.247-22.745-28.247
		c-11.77,0-25.513,7.483-25.513,28.506v85.91h-36.965v-89.912c0-14.881-9.244-24.504-23.516-24.504
		c-14.501,0-24.998,11.676-24.998,27.727v86.69h-37.008V488.64h37.008v6.115c8.482-6.077,19.008-9.355,30.704-9.355
		c17.14,0,31.793,6.472,41.724,18.065c9.973-11.983,24.055-18.065,42.064-18.065C452.195,485.399,475.322,509.072,475.322,542.933"
		/>
	<rect x="500.352" y="488.635" fill="#F9E959" width="37.021" height="146.93"/>
	<path fill="#F9E959" d="M770.164,542.933v92.642h-36.966v-86.17c0-18.729-7.644-28.247-22.778-28.247
		c-11.737,0-25.479,7.483-25.479,28.506v85.91h-37.004v-89.912c0-14.881-9.22-24.504-23.521-24.504
		c-14.456,0-24.995,11.676-24.995,27.727v86.69h-36.994V488.64h36.994v6.115c8.495-6.077,19.017-9.355,30.754-9.355
		c17.141,0,31.794,6.472,41.729,18.065c9.918-11.983,24.004-18.065,42.028-18.065C747.042,485.399,770.164,509.072,770.164,542.933"
		/>
	<path fill="#F9E959" d="M895.455,488.645v9.383c-8.646-6.541-21.273-12.637-38.462-12.637c-41.563,0-71.722,32.37-71.722,76.959
		c0,44.329,30.763,76.504,73.227,76.504c14.197,0,27.096-4.309,37.709-12.351v9.063h36.232V488.645H895.455z M859.742,603.819
		c-22.472,0-36.984-16.259-36.984-41.47c0-24.917,14.652-41.683,36.455-41.683c22.471,0,36.994,16.384,36.994,41.683
		C896.207,582.341,884.804,603.819,859.742,603.819"/>
	<text transform="matrix(1 0 0 1 394.1533 702.6582)"><tspan x="0" y="0" fill="#F9E959" font-family="'FreightSansBoldSC'" font-size="42.2347">id</tspan><tspan x="36.322" y="0" fill="#F9E959" font-family="'FreightSansBoldSC'" font-size="42.2347">e</tspan><tspan x="56.891" y="0" fill="#F9E959" font-family="'FreightSansBoldSC'" font-size="42.2347">nt</tspan><tspan x="104.023" y="0" fill="#F9E959" font-family="'FreightSansBoldSC'" font-size="42.2347">i</tspan><tspan x="115.765" y="0" fill="#F9E959" font-family="'FreightSansBoldSC'" font-size="42.2347">d</tspan><tspan x="140.177" y="0" fill="#F9E959" font-family="'FreightSansBoldSC'" font-size="42.2347">ad </tspan><tspan x="196.729" y="0" fill="#F9E959" font-family="'FreightSansBoldSC'" font-size="42.2347">c</tspan><tspan x="217.719" y="0" fill="#F9E959" font-family="'FreightSansBoldSC'" font-size="42.2347">orpo</tspan><tspan x="314.267" y="0" fill="#F9E959" font-family="'FreightSansBoldSC'" font-size="42.2347">r</tspan><tspan x="336.989" y="0" fill="#F9E959" font-family="'FreightSansBoldSC'" font-size="42.2347" letter-spacing="-1">a</tspan><tspan x="359.373" y="0" fill="#F9E959" font-family="'FreightSansBoldSC'" font-size="42.2347">ti</tspan><tspan x="392.907" y="0" fill="#F9E959" font-family="'FreightSansBoldSC'" font-size="42.2347" letter-spacing="-1">v</tspan><tspan x="414.615" y="0" fill="#F9E959" font-family="'FreightSansBoldSC'" font-size="42.2347">a</tspan></text>
</g>
</svg>
